<?xml version="1.0" encoding="UTF-8"?>
<!DOCTYPE svg PUBLIC "-//W3C//DTD SVG 1.1//EN" "http://www.w3.org/Graphics/SVG/1.1/DTD/svg11.dtd">
<!-- Creator: CorelDRAW X8 -->
<svg xmlns="http://www.w3.org/2000/svg" xml:space="preserve" width="1.06381in" height="1.95129in" version="1.1" style="shape-rendering:geometricPrecision; text-rendering:geometricPrecision; image-rendering:optimizeQuality; fill-rule:evenodd; clip-rule:evenodd"
viewBox="0 0 825 1513"
 xmlns:xlink="http://www.w3.org/1999/xlink">
 <defs>
  <style type="text/css">
   <![CDATA[
    .fil1 {fill:#2D1B69}
    .fil0 {fill:#FF6B35}
    .fil2 {fill:#FF6B35}
   ]]>
  </style>
 </defs>
 <g id="Layer_x0020_2">
  <metadata id="CorelCorpID_0Corel-Layer"/>
  <path class="fil0" d="M451 972l18 0 0 232 95 103 -12 12 -101 -108 0 -239zm-86 -332l-17 0 0 -263 -96 -104 13 -11 100 108 0 270zm31 -599l23 0 0 528 64 -102 14 9 -78 126 0 67 -23 0 0 -628zm24 1431l-22 0 0 -429 -53 85 -15 -9 68 -108 0 -68 22 0 0 529z"/>
  <path class="fil1" d="M0 442l825 914 -1 82 -768 -852 0 859 -56 0 0 -1003zm239 845l-56 0 0 -480 56 52 0 428zm347 -1022l55 0 0 564 -55 -52 0 -512zm239 929l-825 -914 1 -82 768 852 0 -949 56 0 0 1093z"/>
  <circle class="fil2" cx="407" cy="41" r="41"/>
  <circle class="fil2" cx="259" cy="266" r="31"/>
  <circle class="fil2" cx="490" cy="471" r="25"/>
  <circle class="fil2" cx="409" cy="1472" r="41"/>
  <circle class="fil2" cx="557" cy="1314" r="31"/>
  <circle class="fil2" cx="337" cy="1124" r="25"/>
 </g>
</svg>
