<?xml version="1.0" encoding="UTF-8"?>
<!DOCTYPE svg PUBLIC "-//W3C//DTD SVG 1.1//EN" "http://www.w3.org/Graphics/SVG/1.1/DTD/svg11.dtd">
<!-- Creator: CorelDRAW X8 -->
<svg xmlns="http://www.w3.org/2000/svg" xml:space="preserve" width="1.06381in" height="1.95129in" version="1.1" style="shape-rendering:geometricPrecision; text-rendering:geometricPrecision; image-rendering:optimizeQuality; fill-rule:evenodd; clip-rule:evenodd"
viewBox="0 0 825 1513"
 xmlns:xlink="http://www.w3.org/1999/xlink">
 <g id="Layer_x0020_2">
  <g id="_2343506256496">
   <path class="fil0" d="M396 41l23 0c0,387 0,369 0,628l-23 0 0 -628z"/>
   <circle class="fil0" cx="407" cy="41" r="41"/>
  </g>
  <g id="_2343506256272">
   <polygon class="fil1" points="365,640 348,640 348,377 252,273 265,262 365,370 "/>
   <circle class="fil0" cx="259" cy="266" r="31"/>
  </g>
  <g id="_2343506260240">
   <polygon class="fil1" points="451,972 469,972 469,1204 564,1307 552,1319 451,1211 "/>
   <circle class="fil0" cx="557" cy="1314" r="31"/>
  </g>
  <g id="_2343506261168">
   <polygon class="fil1" points="420,1007 398,1043 345,1128 330,1119 398,1011 398,943 420,943 "/>
   <circle class="fil0" cx="337" cy="1124" r="25"/>
  </g>
  <g id="_2343506262032">
   <circle class="fil0" cx="409" cy="1472" r="41"/>
   <path class="fil1" d="M420 1472l-22 0c0,-330 0,-294 0,-529l22 0 0 529z"/>
  </g>
  <g id="_2343506261136">
   <circle class="fil0" cx="490" cy="471" r="25"/>
   <polygon class="fil0" points="396,600 419,569 483,467 497,476 419,602 419,669 396,669 "/>
  </g>
 </g>
 <g id="Layer_x0020_3">
  <path class="fil2" d="M0 442l825 914 -1 82 -768 -852 0 859 -56 0 0 -1003zm239 845l-56 0 0 -480 56 52 0 428zm347 -1022l55 0 0 564 -55 -52 0 -512zm239 929l-825 -914 1 -82 768 852 0 -949 56 0 0 1093z"/>
 </g>
</svg>
