<?xml version="1.0" encoding="UTF-8"?>
<!DOCTYPE svg PUBLIC "-//W3C//DTD SVG 1.1//EN" "http://www.w3.org/Graphics/SVG/1.1/DTD/svg11.dtd">
<!-- Creator: CorelDRAW X8 -->
<svg xmlns="http://www.w3.org/2000/svg" xml:space="preserve" width="2.03713in" height="2.66269in" version="1.1" style="shape-rendering:geometricPrecision; text-rendering:geometricPrecision; image-rendering:optimizeQuality; fill-rule:evenodd; clip-rule:evenodd"
viewBox="0 0 1769 2312"
 xmlns:xlink="http://www.w3.org/1999/xlink">
 <g id="Layer_x0020_2">
  <path class="fil0" d="M928 1425l20 0 0 234 84 92c5,-2 10,-3 15,-3 19,0 34,15 34,34 0,20 -15,35 -34,35 -19,0 -35,-15 -35,-35 0,-7 2,-13 6,-18l-90 -97 0 -242zm-35 492c18,5 32,22 32,42 0,24 -19,43 -43,43 -24,0 -43,-19 -43,-43 0,-19 12,-35 29,-41l0 -439 -46 74c4,4 6,10 6,16 0,15 -12,27 -27,27 -15,0 -27,-12 -27,-27 0,-15 12,-27 27,-27 1,0 3,0 5,1l62 -100 0 -76 25 0 0 550zm-62 -889l-19 0 0 -296 -85 -92c-4,2 -9,3 -14,3 -19,0 -34,-15 -34,-34 0,-19 15,-35 34,-35 19,0 35,16 35,35 0,7 -2,13 -6,19l89 97 0 303zm36 -631c-19,-5 -32,-22 -32,-42 0,-23 19,-43 43,-43 24,0 43,20 43,43 0,20 -12,36 -29,41l0 552 58 -94c-3,-4 -6,-6 -6,-16 0,-11 13,-27 28,-27 15,0 27,12 27,27 0,15 -19,27 -27,27 -9,0 -4,0 -6,0l-74 119 0 76 -25 0 0 -663z"/>
  <path class="fil1" d="M423 805l924 1025 -2 91 -860 -954 0 962 -62 0 0 -1124zm267 948l-62 0 0 -538 62 58 0 480zm389 -1146l62 0 0 632 -62 -58 0 -574zm268 1042l-924 -1025 1 -91 860 954 0 -1064 63 0 0 1226z"/>
  <circle class="fil2" cx="879" cy="356" r="46"/>
  <circle class="fil2" cx="713" cy="609" r="35"/>
  <circle class="fil2" cx="971" cy="838" r="28"/>
  <circle class="fil2" cx="882" cy="1959" r="46"/>
  <circle class="fil2" cx="1047" cy="1782" r="35"/>
  <circle class="fil2" cx="801" cy="1569" r="28"/>
 </g>
</svg>
