<?xml version="1.0" encoding="UTF-8"?>
<!DOCTYPE svg PUBLIC "-//W3C//DTD SVG 1.1//EN" "http://www.w3.org/Graphics/SVG/1.1/DTD/svg11.dtd">
<!-- Creator: CorelDRAW X8 -->
<svg xmlns="http://www.w3.org/2000/svg" xml:space="preserve" width="1.06381in" height="1.95129in" version="1.1" style="shape-rendering:geometricPrecision; text-rendering:geometricPrecision; image-rendering:optimizeQuality; fill-rule:evenodd; clip-rule:evenodd"
viewBox="0 0 825 1513"
 xmlns:xlink="http://www.w3.org/1999/xlink">
 <g id="Layer_x0020_2">
  <path class="fil0" d="M451 995l18 0 0 209 75 82c4,-2 8,-3 13,-3 17,0 31,14 31,31 0,17 -14,31 -31,31 -17,0 -31,-14 -31,-31 0,-6 2,-12 5,-17l-80 -86 0 -216zm-31 439c16,5 28,20 28,38 0,21 -17,38 -38,38 -21,0 -39,-17 -39,-38 0,-17 11,-32 27,-37l0 -392 -41 66c3,4 5,9 5,15 0,13 -11,24 -25,24 -13,0 -24,-11 -24,-24 0,-14 11,-24 24,-24 2,0 4,0 5,0l56 -89 0 -68 22 0 0 491zm-55 -794l-17 0 0 -263 -76 -82c-4,1 -8,2 -13,2 -17,0 -30,-13 -30,-30 0,-17 13,-31 30,-31 17,0 31,14 31,31 0,6 -2,12 -5,16l80 87 0 270zm31 -563c-16,-4 -28,-19 -28,-37 0,-21 17,-38 38,-38 22,0 39,17 39,38 0,17 -11,32 -26,37l0 492 52 -83c-3,-4 -5,-6 -5,-15 0,-10 11,-24 24,-24 13,0 24,11 24,24 0,13 -16,24 -24,24 -7,0 -3,0 -5,0l-66 107 0 67 -23 0 0 -592z"/>
  <path class="fil1" d="M0 442l825 914 -1 82 -768 -852 0 859 -56 0 0 -1003zm239 845l-56 0 0 -480 56 52 0 428zm347 -1022l55 0 0 564 -55 -52 0 -512zm239 929l-825 -914 1 -82 768 852 0 -949 56 0 0 1093z"/>
  <circle class="fil2" cx="407" cy="41" r="41"/>
  <circle class="fil2" cx="259" cy="266" r="31"/>
  <circle class="fil2" cx="490" cy="471" r="25"/>
  <circle class="fil2" cx="410" cy="1472" r="41"/>
  <circle class="fil2" cx="557" cy="1314" r="31"/>
  <circle class="fil2" cx="337" cy="1124" r="25"/>
 </g>
</svg>
